<?xml version="1.0" encoding="UTF-8"?>
<!DOCTYPE svg PUBLIC "-//W3C//DTD SVG 1.1//EN" "http://www.w3.org/Graphics/SVG/1.1/DTD/svg11.dtd">
<!-- Creator: CorelDRAW -->
<svg xmlns="http://www.w3.org/2000/svg" xml:space="preserve" width="84.6666mm" height="84.6666mm" version="1.1" style="shape-rendering:geometricPrecision; text-rendering:geometricPrecision; image-rendering:optimizeQuality; fill-rule:evenodd; clip-rule:evenodd"
viewBox="0 0 8466.66 8466.66"
 xmlns:xlink="http://www.w3.org/1999/xlink"
 xmlns:xodm="http://www.corel.com/coreldraw/odm/2003">
 <defs>
  <style type="text/css">
   <![CDATA[
    .fil1 {fill:black}
    .fil2 {fill:#00754E}
    .fil0 {fill:#00FAA7}
   ]]>
  </style>
 </defs>
 <g id="Camada_x0020_1">
  <metadata id="CorelCorpID_0Corel-Layer"/>
  <g id="_2595104733344">
   <path class="fil0" d="M4330.64 2801.52c18.58,-173.1 -23.1,-612.13 20.52,-736.02 73.12,-207.6 397.01,-146.62 612.43,-146.62 502.67,0 1005.51,1.2 1508.18,-0.06 336.64,-0.84 361.74,69.3 361.41,393.62 -0.27,254.01 -0.02,508.02 -0.02,762.02 0,206.82 48.92,564.36 -79.56,679 -136.5,121.78 -470.83,42.49 -675.4,69.17 -25.89,115.74 -29.56,137.77 -3.75,256.24 103.02,7.48 212.82,-9.47 289.51,20.64 66.46,410.44 -53.4,296.74 -718.73,296.68l-0.85 472.15c43.52,81.37 107.01,27.3 149.89,169.24 57.17,189.24 -112.37,340.27 -292.78,276.78 -103.39,-36.37 -83.63,-107.3 -156.92,-146.64l-1212.98 0c0,178.44 36.53,610.71 -52.4,720.87 -114.36,141.69 -487.84,61.38 -694.09,84.13 -38.74,99.54 -30.19,158.64 -7.24,259.4l261.09 8.97c37.65,50.57 60.25,218.88 7,293.25 -61.8,26.51 -1459.53,24.6 -1538.84,-0.55 -24.86,-67.03 -23.64,-216.97 -2.7,-286.1 75.94,-23.91 191.83,-11.72 285.71,-15.89 13.07,-57.39 34.99,-177.35 1.24,-234.22 -29.45,-49.61 -151.03,-28.76 -221.77,-28.69 -537.64,0.6 -538.67,4.24 -536.07,-513.19l-0.11 -1031.96c-0.39,-116.52 -12.51,-285.1 163.39,-340.92 98.53,-31.25 855.51,-12.37 1025.04,-12.35l0.44 -987.83c-293.52,-96.6 -152.31,-516 134.88,-430.86 81.12,24.04 115.09,72.04 151.35,149.72l1222.13 0.02zm-4161.31 1304.82c0,604.4 37.28,939.62 231.98,1498.39 94.61,271.48 180.93,426.81 313.16,671.08 30.66,56.65 58.91,94.45 90.6,147.53 130.31,218.21 377.06,513.47 550.91,687.34 164.74,164.72 337.69,306.58 527.74,440.64 238.54,168.26 353.52,234.47 619,365.25 375.99,185.2 1028.48,380.76 1587.73,380.76l21.53 0c448.13,-0.09 662.65,-4.14 1115.33,-117.28 136.63,-34.15 249.81,-70.24 377.42,-114.7 520.76,-181.48 840.28,-406.23 1248,-720.49 814.3,-627.62 1444.6,-1900.22 1444.6,-2968.65 0,-733 -86.49,-1260.95 -375.51,-1862.88 -439.61,-915.6 -1060.67,-1509.96 -1958.05,-1963.06 -429.19,-216.71 -1100.7,-380.94 -1587.56,-380.94 -611.86,0 -945.76,33.88 -1514.28,231.98 -113.32,39.48 -245.87,91.85 -348.51,143.6l-470.1 260.16c-666.75,398.18 -1152.54,1022.42 -1498.41,1708.35 -217.61,431.59 -375.58,1104.42 -375.58,1592.92z"/>
   <path class="fil1" d="M2520.04 6217.7c20.65,-82.48 66.42,-56.53 157.39,-55.4l413.03 0.02c110.89,-1.37 144.52,-30.96 161.12,71.38 -59.63,0 -681.32,17.7 -731.54,-16zm-4.93 -245.32l726.02 0c-3.67,105.81 -26.1,67.63 -357.17,67.63 -291.24,0 -355.18,40.58 -368.85,-67.63zm-759.96 -1627.92c0,-113.94 49.99,-152.51 160.43,-152.51 645.6,0 1291.15,0 1936.75,0 115.67,0 157.61,34.27 157.61,152.51l0.04 1064.44c-663.49,18.06 -1578.42,1.52 -2269.02,1.43l14.19 -1065.87zm3827.55 -335.62c302.72,0 347.02,-38.63 364.5,68.7l-732 0.11c14.56,-100.88 50.4,-70.18 161,-68.98 68.72,0.75 137.74,0.17 206.5,0.17zm-2479.81 -1078.6l1233.06 -6.04c34.12,190.43 -10.01,490.48 9.97,706.02 36.25,274.78 467.99,172.87 743.58,189.73 24.46,121.57 20.98,140.29 1.57,259.48 -178.26,10.65 -381.99,-87.47 -288.66,300.94 95.27,34.93 569.8,15.84 719.41,15.82 1.25,650.67 22.42,430.22 -97.96,551.44 -41.81,42.11 -27.56,69.43 -79.29,98.63l-1212.98 0c0,-1161.64 160.3,-975.83 -1187.18,-975.79l-0.48 -964.26c53,-75.92 110.23,-40.69 158.96,-175.97zm2161.66 957.51c-59.74,-12.96 -32.89,10.76 -48.98,-51.3 56.49,-35.95 671.5,-16.82 736.35,-16.82 -17.43,99.39 -52.8,69.13 -162.71,67.91l-524.66 0.21zm-801.96 -629.8c-15.43,-97.03 -15.38,-1106.03 5.83,-1155.45 34.93,-81.43 150.65,-62.57 241.14,-62.23l1460.52 0.07c164.66,0 481.93,-33.43 527.53,61.8 24.85,51.86 25.18,1057.73 6.92,1156.58l-2241.94 -0.77zm-131.95 -456.43l-1222.13 -0.02c-36.26,-77.68 -70.23,-125.68 -151.35,-149.72 -287.19,-85.14 -428.4,334.26 -134.88,430.86l-0.44 987.83c-169.53,-0.02 -926.51,-18.9 -1025.04,12.35 -175.9,55.82 -163.78,224.4 -163.39,340.92l0.11 1031.96c-2.6,517.43 -1.57,513.79 536.07,513.19 70.74,-0.07 192.32,-20.92 221.77,28.69 33.75,56.87 11.83,176.83 -1.24,234.22 -93.88,4.17 -209.77,-8.02 -285.71,15.89 -20.94,69.13 -22.16,219.07 2.7,286.1 79.31,25.15 1477.04,27.06 1538.84,0.55 53.25,-74.37 30.65,-242.68 -7,-293.25l-261.09 -8.97c-22.95,-100.76 -31.5,-159.86 7.24,-259.4 206.25,-22.75 579.73,57.56 694.09,-84.13 88.93,-110.16 52.4,-542.43 52.4,-720.87l1212.98 0c73.29,39.34 53.53,110.27 156.92,146.64 180.41,63.49 349.95,-87.54 292.78,-276.78 -42.88,-141.94 -106.37,-87.87 -149.89,-169.24l0.85 -472.15c665.33,0.06 785.19,113.76 718.73,-296.68 -76.69,-30.11 -186.49,-13.16 -289.51,-20.64 -25.81,-118.47 -22.14,-140.5 3.75,-256.24 204.57,-26.68 538.9,52.61 675.4,-69.17 128.48,-114.64 79.56,-472.18 79.56,-679 0,-254 -0.25,-508.01 0.02,-762.02 0.33,-324.32 -24.77,-394.46 -361.41,-393.62 -502.67,1.26 -1005.51,0.06 -1508.18,0.06 -215.42,0 -539.31,-60.98 -612.43,146.62 -43.62,123.89 -1.94,562.92 -20.52,736.02z"/>
   <path class="fil0" d="M4345.92 3630.22c-52.38,-81.32 -19.05,-563.65 -19.05,-700.94l-1223.98 0.96c-48.73,135.28 -105.96,100.05 -158.96,175.97l0.48 964.26c1347.48,-0.04 1187.18,-185.85 1187.18,975.79l1212.98 0c51.73,-29.2 37.48,-56.52 79.29,-98.63 120.38,-121.22 99.21,99.23 97.96,-551.44 -149.61,0.02 -624.14,19.11 -719.41,-15.82 -93.33,-388.41 110.4,-290.29 288.66,-300.94 19.41,-119.19 22.89,-137.91 -1.57,-259.48 -275.59,-16.86 -707.33,85.05 -743.58,-189.73z"/>
   <path class="fil0" d="M1740.96 5410.33c690.6,0.09 1605.53,16.63 2269.02,-1.43l-0.04 -1064.44c0,-118.24 -41.94,-152.51 -157.61,-152.51 -645.6,0 -1291.15,0 -1936.75,0 -110.44,0 -160.43,38.57 -160.43,152.51l-14.19 1065.87z"/>
   <path class="fil0" d="M4462.59 3257.95l2241.94 0.77c18.26,-98.85 17.93,-1104.72 -6.92,-1156.58 -45.6,-95.23 -362.87,-61.8 -527.53,-61.8l-1460.52 -0.07c-90.49,-0.34 -206.21,-19.2 -241.14,62.23 -21.21,49.42 -21.26,1058.42 -5.83,1155.45z"/>
   <path class="fil0" d="M2677.43 6162.3c-90.97,-1.13 -136.74,-27.08 -157.39,55.4 50.22,33.7 671.91,16 731.54,16 -16.6,-102.34 -50.23,-72.75 -161.12,-71.38l-413.03 -0.02z"/>
   <path class="fil0" d="M5215.57 3836.45c16.09,62.06 -10.76,38.34 48.98,51.3l524.66 -0.21c109.91,1.22 145.28,31.48 162.71,-67.91 -64.85,0 -679.86,-19.13 -736.35,16.82z"/>
   <path class="fil0" d="M5215.2 4077.65l732 -0.11c-17.48,-107.33 -61.78,-68.7 -364.5,-68.7 -68.76,0 -137.78,0.58 -206.5,-0.17 -110.6,-1.2 -146.44,-31.9 -161,68.98z"/>
   <path class="fil0" d="M3241.13 5972.38l-726.02 0c13.67,108.21 77.61,67.63 368.85,67.63 331.07,0 353.5,38.18 357.17,-67.63z"/>
   <path class="fil2" d="M4345.92 3630.22c-19.98,-215.54 24.15,-515.59 -9.97,-706.02l-1233.06 6.04 1223.98 -0.96c0,137.29 -33.33,619.62 19.05,700.94z"/>
  </g>
 </g>
</svg>
